<svg width="1088" height="308" viewBox="0 0 1088 308" fill="none" xmlns="http://www.w3.org/2000/svg">
<g clip-path="url(#clip0_56_31)">
<mask id="mask0_56_31" style="mask-type:luminance" maskUnits="userSpaceOnUse" x="0" y="0" width="1088" height="308">
<path d="M0 24C0 10.7452 10.7452 0 24 0H1064C1077.25 0 1088 10.7452 1088 24V284C1088 297.255 1077.25 308 1064 308H24C10.7452 308 0 297.255 0 284V24Z" fill="white"/>
</mask>
<g mask="url(#mask0_56_31)">
<mask id="mask1_56_31" style="mask-type:luminance" maskUnits="userSpaceOnUse" x="0" y="0" width="1088" height="557">
<path d="M1088 0H0V556.8H1088V0Z" fill="white"/>
</mask>
<g mask="url(#mask1_56_31)">
<mask id="mask2_56_31" style="mask-type:luminance" maskUnits="userSpaceOnUse" x="0" y="0" width="1282" height="601">
<path d="M1281.82 0H0.00292969V600.686H1281.82V0Z" fill="white"/>
</mask>
<g mask="url(#mask2_56_31)">
<path d="M1281.82 0H0.00292969V600.686H1281.82V0Z" fill="#0A0A0A"/>
<mask id="mask3_56_31" style="mask-type:luminance" maskUnits="userSpaceOnUse" x="-1" y="0" width="1284" height="755">
<path d="M1282.27 0H-0.432617V754.49H1282.27V0Z" fill="white"/>
</mask>
<g mask="url(#mask3_56_31)">
<g filter="url(#filter0_f_56_31)">
<path fill-rule="evenodd" clip-rule="evenodd" d="M523.545 349.05C521.962 350.632 519.396 350.632 517.813 349.05L100.95 -67.8142C99.3681 -69.3969 99.3681 -71.9629 100.95 -73.5456L140.043 -112.638C141.626 -114.221 144.191 -114.221 145.774 -112.638L562.636 304.228C564.218 305.81 564.218 308.377 562.636 309.959L523.545 349.05Z" fill="url(#paint0_linear_56_31)" fill-opacity="0.6"/>
</g>
<g filter="url(#filter1_f_56_31)">
<path fill-rule="evenodd" clip-rule="evenodd" d="M984.281 149.788C982.699 151.371 980.13 151.371 978.548 149.788L708.861 -119.899C707.278 -121.482 707.278 -124.048 708.861 -125.631L732.343 -149.113C733.926 -150.696 736.492 -150.696 738.074 -149.113L1007.76 120.576C1009.34 122.159 1009.34 124.725 1007.76 126.308L984.281 149.788Z" fill="url(#paint1_linear_56_31)"/>
</g>
<g filter="url(#filter2_f_56_31)">
<path fill-rule="evenodd" clip-rule="evenodd" d="M973.566 537.504C971.984 539.087 969.415 539.087 967.833 537.504L380.593 -49.742C379.01 -51.3248 379.01 -53.8909 380.593 -55.4735L437.757 -112.638C439.34 -114.221 441.906 -114.221 443.489 -112.638L1030.73 474.609C1032.31 476.193 1032.31 478.758 1030.73 480.341L973.566 537.504Z" fill="url(#paint2_linear_56_31)" fill-opacity="0.7"/>
</g>
</g>
<path d="M2099.09 995.291L663.204 2431.19L-772.68 995.291L663.204 -440.6L2099.09 995.291ZM662.965 -165.836L-497.916 995.054L-498.155 995.291L-497.916 995.529L662.965 2156.43L663.205 2156.66L663.444 2156.43L1824.32 995.529L1824.56 995.291L1824.32 995.054L663.444 -165.836L663.205 -166.074L662.965 -165.836Z" stroke="#483BFC" stroke-width="0.675458"/>
<path fill-rule="evenodd" clip-rule="evenodd" d="M728.791 394.25C727.208 392.667 727.208 390.101 728.791 388.518L1694.66 -577.356C1696.24 -578.939 1698.8 -578.939 1700.39 -577.356L1797.72 -480.03C1799.3 -478.448 1799.3 -475.881 1797.72 -474.299L831.843 491.572C830.261 493.155 827.694 493.155 826.112 491.572L728.791 394.25Z" fill="url(#paint3_linear_56_31)"/>
</g>
</g>
</g>
</g>
<defs>
<filter id="filter0_f_56_31" x="-17.7659" y="-231.355" width="699.119" height="699.121" filterUnits="userSpaceOnUse" color-interpolation-filters="sRGB">
<feFlood flood-opacity="0" result="BackgroundImageFix"/>
<feBlend mode="normal" in="SourceGraphic" in2="BackgroundImageFix" result="shape"/>
<feGaussianBlur stdDeviation="58.7648" result="effect1_foregroundBlur_56_31"/>
</filter>
<filter id="filter1_f_56_31" x="590.144" y="-267.83" width="536.331" height="536.335" filterUnits="userSpaceOnUse" color-interpolation-filters="sRGB">
<feFlood flood-opacity="0" result="BackgroundImageFix"/>
<feBlend mode="normal" in="SourceGraphic" in2="BackgroundImageFix" result="shape"/>
<feGaussianBlur stdDeviation="58.7648" result="effect1_foregroundBlur_56_31"/>
</filter>
<filter id="filter2_f_56_31" x="261.876" y="-231.355" width="887.569" height="887.576" filterUnits="userSpaceOnUse" color-interpolation-filters="sRGB">
<feFlood flood-opacity="0" result="BackgroundImageFix"/>
<feBlend mode="normal" in="SourceGraphic" in2="BackgroundImageFix" result="shape"/>
<feGaussianBlur stdDeviation="58.7648" result="effect1_foregroundBlur_56_31"/>
</filter>
<linearGradient id="paint0_linear_56_31" x1="331.462" y1="125.658" x2="574.301" y2="210.554" gradientUnits="userSpaceOnUse">
<stop offset="0.015" stop-color="#483BFC"/>
<stop offset="1" stop-color="#483BFC" stop-opacity="0"/>
</linearGradient>
<linearGradient id="paint1_linear_56_31" x1="858.095" y1="5.19514" x2="1016.36" y2="60.5239" gradientUnits="userSpaceOnUse">
<stop offset="0.015" stop-color="#483BFC"/>
<stop offset="1" stop-color="#483BFC" stop-opacity="0"/>
</linearGradient>
<linearGradient id="paint2_linear_56_31" x1="705.197" y1="222.89" x2="1045.94" y2="342.013" gradientUnits="userSpaceOnUse">
<stop offset="0.015" stop-color="#483BFC"/>
<stop offset="1" stop-color="#483BFC" stop-opacity="0"/>
</linearGradient>
<linearGradient id="paint3_linear_56_31" x1="1246.11" y1="-43.6532" x2="1050.93" y2="514.669" gradientUnits="userSpaceOnUse">
<stop offset="0.015" stop-color="#483BFC"/>
<stop offset="1" stop-color="#483BFC" stop-opacity="0"/>
</linearGradient>
<clipPath id="clip0_56_31">
<rect width="1088" height="308" fill="white"/>
</clipPath>
</defs>
</svg>
