<svg width="100" height="100" viewBox="0 0 100 100" fill="none" xmlns="http://www.w3.org/2000/svg">
<path d="M43.1128 22.2591C43.5032 21.8687 44.1363 21.8689 44.5269 22.2591L73.0181 50.7494C73.648 51.3793 73.2019 52.4563 72.3111 52.4564H43.6997C43.1474 52.4564 42.6997 52.0087 42.6997 51.4564V48.3041C42.6997 47.7518 43.1474 47.3041 43.6997 47.3041H59.8696C60.7604 47.3039 61.2066 46.226 60.5767 45.5961L40.8833 25.9037C40.4928 25.5131 40.4928 24.8792 40.8833 24.4886L43.1128 22.2591Z" fill="url(#paint0_linear_1_13)"/>
<path d="M43.1128 22.2591C43.5032 21.8687 44.1363 21.8689 44.5269 22.2591L73.0181 50.7494C73.648 51.3793 73.2019 52.4563 72.3111 52.4564H43.6997C43.1474 52.4564 42.6997 52.0087 42.6997 51.4564V48.3041C42.6997 47.7518 43.1474 47.3041 43.6997 47.3041H59.8696C60.7604 47.3039 61.2066 46.226 60.5767 45.5961L40.8833 25.9037C40.4928 25.5131 40.4928 24.8792 40.8833 24.4886L43.1128 22.2591Z" stroke="white"/>
<path d="M60.7196 28.0024C61.1101 27.6119 61.7441 27.6119 62.1346 28.0024L64.3641 30.2329C64.7544 30.6234 64.7546 31.2565 64.3641 31.6469L31.4217 64.5883C31.0312 64.9786 30.3981 64.9788 30.0077 64.5883L27.7782 62.3589C27.3877 61.9684 27.3879 61.3353 27.7782 60.9448L60.7196 28.0024Z" fill="url(#paint1_linear_1_13)"/>
<path d="M60.7196 28.0024C61.1101 27.6119 61.7441 27.6119 62.1346 28.0024L64.3641 30.2329C64.7544 30.6234 64.7546 31.2565 64.3641 31.6469L31.4217 64.5883C31.0312 64.9786 30.3981 64.9788 30.0077 64.5883L27.7782 62.3589C27.3877 61.9684 27.3879 61.3353 27.7782 60.9448L60.7196 28.0024Z" stroke="white"/>
<path d="M49.293 12.707C49.6835 12.3166 50.3165 12.3166 50.707 12.707L87.293 49.293C87.6834 49.6835 87.6834 50.3165 87.293 50.707L50.707 87.293C50.3165 87.6834 49.6835 87.6834 49.293 87.293L12.707 50.707C12.3166 50.3165 12.3166 49.6835 12.707 49.293L49.293 12.707ZM50.707 19.9951C50.3165 19.6046 49.6835 19.6046 49.293 19.9951L19.9951 49.293C19.6047 49.6835 19.6046 50.3165 19.9951 50.707L49.293 80.0049C49.6835 80.3954 50.3165 80.3954 50.707 80.0049L80.0049 50.707C80.3954 50.3165 80.3953 49.6835 80.0049 49.293L50.707 19.9951Z" fill="white"/>
<path d="M49.293 12.707C49.6835 12.3166 50.3165 12.3166 50.707 12.707L87.293 49.293C87.6834 49.6835 87.6834 50.3165 87.293 50.707L50.707 87.293C50.3165 87.6834 49.6835 87.6834 49.293 87.293L12.707 50.707C12.3166 50.3165 12.3166 49.6835 12.707 49.293L49.293 12.707ZM50.707 19.9951C50.3165 19.6046 49.6835 19.6046 49.293 19.9951L19.9951 49.293C19.6047 49.6835 19.6046 50.3165 19.9951 50.707L49.293 80.0049C49.6835 80.3954 50.3165 80.3954 50.707 80.0049L80.0049 50.707C80.3954 50.3165 80.3953 49.6835 80.0049 49.293L50.707 19.9951Z" stroke="white"/>
<defs>
<linearGradient id="paint0_linear_1_13" x1="38.9875" y1="49.6222" x2="62.8732" y2="49.6222" gradientUnits="userSpaceOnUse">
<stop offset="0.175" stop-color="white"/>
<stop offset="0.92" stop-color="white"/>
</linearGradient>
<linearGradient id="paint1_linear_1_13" x1="45.4653" y1="46.2685" x2="38.5635" y2="66.0108" gradientUnits="userSpaceOnUse">
<stop offset="0.015" stop-color="white"/>
<stop offset="1" stop-color="white"/>
</linearGradient>
</defs>
</svg>
