<svg width="61" height="60" viewBox="0 0 61 60" fill="none" xmlns="http://www.w3.org/2000/svg">
<g clip-path="url(#clip0_4814_2985)">
<mask id="mask0_4814_2985" style="mask-type:luminance" maskUnits="userSpaceOnUse" x="0" y="0" width="61" height="60">
<path d="M60.1992 0H0.199219V60H60.1992V0Z" fill="white"/>
</mask>
<g mask="url(#mask0_4814_2985)">
<mask id="mask1_4814_2985" style="mask-type:luminance" maskUnits="userSpaceOnUse" x="0" y="0" width="61" height="60">
<path d="M60.1992 0H0.199219V60H60.1992V0Z" fill="white"/>
</mask>
<g mask="url(#mask1_4814_2985)">
<path d="M30.1992 60C46.7677 60 60.1992 46.5685 60.1992 30C60.1992 13.4315 46.7677 0 30.1992 0C13.6307 0 0.199219 13.4315 0.199219 30C0.199219 46.5685 13.6307 60 30.1992 60Z" fill="#483BFC" fill-opacity="0.1"/>
<path fill-rule="evenodd" clip-rule="evenodd" d="M18.3009 38.7812L15.1992 44.6802L21.3849 45.1712L22.9392 42.215C21.1981 41.3434 19.6302 40.1769 18.3009 38.7812ZM22.9392 42.215L21.3849 45.1712L25.2957 49.989L28.5137 43.8687C26.5297 43.6437 24.6507 43.0717 22.9392 42.215ZM32.1737 43.8854L35.415 50L39.3091 45.169L45.4931 44.6574L42.4355 38.8895C39.776 41.6325 36.1855 43.4677 32.1737 43.8854Z" fill="#483BFC"/>
<path fill-rule="evenodd" clip-rule="evenodd" d="M30.4216 41.4837C38.2871 41.4837 44.6634 35.1074 44.6634 27.2419C44.6634 19.3763 38.2871 13 30.4216 13C22.556 13 16.1797 19.3763 16.1797 27.2419C16.1797 35.1074 22.556 41.4837 30.4216 41.4837ZM26.3184 32.537L29.3822 27.4384L26.2491 22.0476L23.2557 27.2323L26.3184 32.537ZM36.8888 26.229L31.1596 26.2293L28.1657 21.0781H33.915L36.8888 26.229ZM28.3096 33.3864L31.3218 28.3736L36.8093 28.3733L33.915 33.3864H28.3096ZM25.5708 18.9339L20.7798 27.2323L25.5708 35.5307H35.153L39.9441 27.2323L35.153 18.9339H25.5708Z" fill="#483BFC"/>
</g>
</g>
</g>
<defs>
<clipPath id="clip0_4814_2985">
<rect width="60" height="60" fill="white" transform="translate(0.199219)"/>
</clipPath>
</defs>
</svg>
