<svg width="200" height="70" viewBox="0 0 200 70" fill="none" xmlns="http://www.w3.org/2000/svg">
<path d="M19.3603 34.4852C19.3603 28.7643 23.7995 24.1376 29.3501 24.1376C34.9394 24.1376 39.3799 28.7668 39.3799 34.4852C39.3799 40.1637 34.9394 44.8753 29.3501 44.8753C23.7995 44.8753 19.3603 40.1586 19.3603 34.4852ZM34.5831 34.4852C34.5831 31.6254 32.2441 29.1012 29.3501 29.1012C26.496 29.1012 24.157 31.6254 24.157 34.4852C24.157 37.3875 26.496 39.9117 29.3501 39.9117C32.249 39.9117 34.5831 37.3875 34.5831 34.4852ZM120.099 34.6537C120.099 28.3862 124.896 24.1376 129.258 24.1376C132.23 24.1376 133.936 25.1046 135.084 26.9563L135.541 24.5131H140V44.4959H135.541L134.966 42.4385C133.658 43.9533 132.032 44.8817 129.258 44.8817C124.976 44.8753 120.099 40.8787 120.099 34.6537ZM135.322 34.6112C135.311 31.5859 132.962 29.1031 130.111 29.1031C127.252 29.1031 124.9 31.5991 124.9 34.6324V34.6537C124.9 37.4299 127.239 39.9117 130.094 39.9117C132.984 39.9117 135.322 37.4299 135.322 34.6112ZM114.62 26.829V24.5144H109.745V44.4959H114.62V33.7291C114.62 30.4899 116.128 28.808 118.741 28.808C118.914 28.808 119.079 28.8208 119.24 28.8375L120.144 24.0141C117.603 24.0283 115.761 24.9529 114.62 26.829ZM65.6262 26.8303V24.5156L60.7507 24.5272L60.7919 44.5062L65.6674 44.4946L65.6408 33.7291C65.6335 30.4912 67.1375 28.8054 69.7528 28.799C69.9195 28.7995 70.0863 28.8094 70.2521 28.8285L71.1513 24C68.6063 24.0219 66.7618 24.9503 65.6262 26.8303ZM41.0693 36.7561V24.5156H45.9436V36.126C45.9436 38.6914 47.2912 40.2062 49.6302 40.2062C52.2467 40.2062 53.7507 38.5229 53.7507 35.2838V24.5156H58.6274V44.4959H53.7543V42.1813C52.6054 44.0742 50.7415 45 48.165 45C43.8045 45.0013 41.0693 41.6361 41.0693 36.7561V36.7561ZM88.5447 34.5084C88.5556 28.9134 92.3295 24.126 98.3151 24.1376C103.866 24.1492 107.781 28.8671 107.768 34.4248C107.769 34.9742 107.728 35.5229 107.647 36.0656L93.2966 36.0373C93.8468 38.4355 95.7071 40.1637 98.5223 40.1702C100.226 40.1702 102.051 39.5041 103.164 37.9919L106.489 40.8208C104.779 43.3836 101.763 44.892 98.5539 44.8856C92.8882 44.865 88.535 40.3553 88.5447 34.5084V34.5084ZM102.86 32.4329C102.586 30.4141 100.607 28.853 98.2678 28.8491C96.0076 28.8491 94.1825 30.2713 93.465 32.4149L102.86 32.4329ZM71.1804 40.1406L75.5142 37.7334C76.2304 39.3806 77.6629 40.3515 79.6929 40.3515C81.5629 40.3515 82.2791 39.7188 82.2791 38.8315C82.2791 35.6168 72.013 37.5649 72.013 30.216C72.013 26.1629 75.3554 24.0103 79.4929 24.0103C82.6366 24.0103 85.4216 25.4878 86.934 28.2319L82.639 30.6429C82.0028 29.2915 80.809 28.5315 79.2966 28.5315C77.8253 28.5315 77.1079 29.0806 77.1079 30.009C77.1079 33.1337 87.374 31.1496 87.374 38.6245C87.374 42.5092 84.3902 44.8727 79.5753 44.8727C75.4766 44.8688 72.6117 43.4338 71.1804 40.1406V40.1406ZM0 34.4852C0 28.7231 4.43923 24.0952 9.98979 24.0952C13.3767 24.07 16.5562 25.8616 18.4332 28.853L14.2715 31.4145C13.7897 30.6846 13.1487 30.0892 12.4031 29.679C11.6576 29.2688 10.8296 29.056 9.98979 29.0587C7.13573 29.0587 4.79675 31.5829 4.79675 34.4852C4.79675 37.3875 7.13573 39.9117 9.98979 39.9117C10.8692 39.9173 11.7353 39.6838 12.5055 39.2336C13.2758 38.7834 13.9247 38.1315 14.3902 37.3399L18.5107 39.9477C16.6557 43.0281 13.4326 44.8895 9.98736 44.8701C4.43923 44.8753 0 40.1586 0 34.4852Z" fill="white" fill-opacity="0.3"/>
</svg>
