<svg width="268" height="46" viewBox="0 0 268 46" fill="none" xmlns="http://www.w3.org/2000/svg">
<path d="M21.3466 42.9333H39.3168V12.0949H31.4088V35.097H22.0085C15.7988 35.097 12.4031 32.1315 11.4103 27.6409C11.0784 26.0319 10.9535 24.9299 10.9535 20.9903V4.08887H3.04547V24.5916C3.04547 30.9457 6.60662 42.9333 21.3466 42.9333Z" fill="white"/>
<path d="M110.65 42.4672C110.65 42.4672 110.65 42.6798 110.48 42.8066C110.354 42.9334 110.143 42.9334 110.143 42.9334H41.7329V4.15433C56.4942 3.47762 65.9849 8.09193 71.889 15.0349V4.15433C102.719 2.75798 110.65 24.0948 110.65 42.4672M71.889 35.1011C69.9064 18.8028 58.4352 12.5795 49.7891 12.5795V35.1011H71.889ZM102.045 35.1011C100.063 18.8028 88.5913 12.5795 79.9452 12.5795V34.636C79.9869 34.8046 80.0295 34.9324 80.0295 35.1011H102.045Z" fill="white"/>
<path d="M125.751 5.5466V15.409C125.751 17.9431 126.533 18.7619 128.134 18.7619C129.698 18.7619 130.478 17.9431 130.478 15.409V5.5466H133.253V15.409C133.253 19.4243 130.947 20.9842 128.134 20.9842C125.282 20.9842 123.016 19.4243 123.016 15.409V5.5466H125.751ZM135.909 11.4346C135.909 10.7323 135.909 10.0689 135.831 9.56188H138.292C138.292 10.1077 138.37 10.6935 138.37 11.2792H138.41C138.801 10.5759 139.582 9.36766 141.379 9.36766C143.919 9.36766 144.661 11.2792 144.661 13.5414V20.7992H142.004V14.0494C142.004 12.2933 141.574 11.591 140.481 11.591C139.074 11.591 138.566 12.8003 138.566 14.2437V20.7603H135.909V11.4346ZM147.356 9.52304H150.004V20.7501H147.356V9.52304ZM147.318 4.76664H150.092V7.42748H147.318V4.76664ZM151.693 9.52304H154.467L156.733 18.1772H156.773L159.039 9.52304H161.617L158.218 20.7501H155.093L151.693 9.52304ZM171.19 20.2431C170.142 20.704 169.012 20.9427 167.869 20.9443C164.313 20.9443 162.75 18.3714 162.75 15.3313C162.75 11.9784 164.508 9.36664 167.321 9.36664C169.745 9.36664 171.776 10.7702 171.776 15.3702V15.8772H165.368C165.368 17.7867 166.11 18.9561 168.181 18.9561C169.783 18.9561 170.565 18.489 171.072 18.0995L171.19 20.2431ZM169.158 14.1506C169.158 12.1706 168.533 11.1596 167.321 11.1596C165.915 11.1596 165.33 12.6756 165.33 14.1517L169.158 14.1506ZM173.885 20.7501V11.3937C173.885 10.6925 173.885 10.029 173.807 9.52304H176.233C176.233 10.2243 176.313 10.9265 176.313 11.5879H176.351C176.665 10.7313 177.526 9.36664 179.169 9.36664C179.365 9.36664 179.483 9.40548 179.639 9.44433V11.9794C179.399 11.8994 179.148 11.8596 178.895 11.8619C177.799 11.8619 176.587 12.5243 176.587 14.629V20.7501H173.885ZM180.88 18.1383C181.309 18.2937 182.402 18.8784 183.653 18.8784C184.63 18.8784 185.372 18.6055 185.372 17.7478C185.372 17.3185 185.177 16.9301 184.2 16.3443L183.106 15.6819C181.973 15.0195 180.762 14.2784 180.762 12.5243C180.762 10.9654 182.247 9.32779 184.591 9.32779C185.997 9.32779 187.091 9.71726 187.364 9.79597L187.208 11.9007C186.544 11.6278 185.841 11.3937 184.864 11.3937C183.809 11.3937 183.341 11.823 183.341 12.4854C183.341 13.109 183.809 13.4208 184.59 13.9278L185.92 14.7854C187.286 15.6819 187.991 16.3055 187.991 17.6313C187.991 19.6972 186.271 20.9443 183.849 20.9443C182.481 20.9443 181.309 20.6326 180.762 20.3985L180.88 18.1383ZM190.217 9.52304H192.874V20.7501H190.217V9.52304ZM190.177 4.76664H192.952V7.42748H190.177V4.76664ZM204.751 4.41602V18.8784C204.751 19.6584 204.751 20.3606 204.829 20.7889H202.329C202.273 20.206 202.247 19.6205 202.251 19.0348H202.172C201.743 19.9702 200.922 20.9443 199.203 20.9443C196.429 20.9443 195.296 18.2937 195.296 15.1749C195.296 11.5113 196.741 9.36664 199.125 9.36664C200.688 9.36664 201.587 10.302 201.978 11.1596H202.015V4.41602H204.751ZM197.914 15.0584C197.914 17.6313 198.343 18.9561 199.867 18.996C201.43 18.996 201.978 17.2418 201.978 15.1361C201.978 12.9536 201.352 11.3549 199.907 11.3549C198.422 11.3549 197.914 12.7972 197.914 15.0584V15.0584ZM207.642 10.1865C208.384 9.83481 209.439 9.36664 211.159 9.36664C214.636 9.36664 215.417 11.084 215.417 13.893V18.8099C215.417 19.6277 215.495 20.3698 215.574 20.7992H213.151C213.034 20.3698 212.995 19.823 212.995 19.2771H212.955C212.292 20.2134 211.471 20.9944 209.869 20.9944C208.151 20.9944 206.549 19.7841 206.549 17.6773C206.549 14.6341 208.971 13.8542 212.37 13.8542H212.917V13.4249C212.917 12.2933 212.37 11.2782 210.846 11.2782C209.518 11.2782 208.306 11.9426 207.798 12.372L207.642 10.1865ZM212.877 15.916V15.2925H212.644C210.377 15.2925 209.01 15.7596 209.01 17.3982C209.01 18.4102 209.713 19.1125 210.729 19.1125C212.331 19.1125 212.917 17.9042 212.917 15.916H212.877ZM227.06 4.41602V18.8784C227.06 19.6584 227.06 20.3606 227.138 20.7889H224.638C224.582 20.206 224.556 19.6205 224.56 19.0348H224.481C224.012 19.9702 223.232 20.9443 221.512 20.9443C218.739 20.9443 217.605 18.2937 217.605 15.1749C217.605 11.5113 219.05 9.36664 221.434 9.36664C222.997 9.36664 223.896 10.302 224.287 11.1596H224.325V4.41602H227.06ZM220.263 15.0584C220.263 17.6313 220.653 18.9561 222.221 18.996C223.787 18.996 224.335 17.2418 224.335 15.1361C224.335 12.9536 223.709 11.3549 222.259 11.3549C220.771 11.3549 220.263 12.7972 220.263 15.0584V15.0584Z" fill="white"/>
<path d="M133.947 23.7186V40.113C133.947 40.9962 133.947 41.7915 134.036 42.2781H131.201C131.137 41.6174 131.108 40.9537 131.112 40.2899H131.024C130.536 41.3499 129.606 42.4549 127.658 42.4549C124.513 42.4549 123.229 39.4496 123.229 35.9148C123.229 31.7615 124.868 29.3317 127.569 29.3317C129.34 29.3317 130.36 30.3917 130.802 31.3638H130.847V23.7186H133.947ZM126.197 35.7819C126.197 38.6983 126.684 40.2009 128.411 40.2449C130.182 40.2449 130.802 38.2567 130.802 35.8698C130.802 33.396 130.094 31.5846 128.455 31.5846C126.772 31.5846 126.197 33.2202 126.197 35.7819V35.7819ZM145.86 41.6597C145.241 41.9244 143.911 42.4549 142.096 42.4549C138.066 42.4549 136.294 39.5385 136.294 36.0916C136.294 32.291 138.287 29.3306 141.476 29.3306C144.222 29.3306 146.524 30.9212 146.524 36.1356V36.7101H139.262C139.262 38.8751 140.103 40.2009 142.449 40.2009C144.266 40.2009 145.151 39.6704 145.728 39.2298L145.86 41.6597ZM143.546 34.7658C143.546 32.5118 142.84 31.3638 141.47 31.3638C139.88 31.3638 139.217 33.0863 139.217 34.7658H143.546ZM149.137 23.6747H152.149V42.2341H149.137V23.6747ZM161.848 25.0005H166.277C171.591 25.0005 174.425 27.9169 174.425 33.6178C174.425 39.4057 171.014 42.2341 166.277 42.2341H161.848V25.0005ZM164.948 39.8912H166.011C169.509 39.8912 171.104 37.4614 171.104 33.6608C171.104 29.8612 169.51 27.4303 166.011 27.4303H164.948V39.8912ZM186.108 41.6597C185.488 41.9244 184.161 42.4549 182.347 42.4549C178.321 42.4549 176.551 39.5385 176.551 36.0916C176.551 32.291 178.542 29.3306 181.728 29.3306C184.47 29.3306 186.772 30.9212 186.772 36.1356V36.7101H179.515C179.515 38.8751 180.356 40.2009 182.701 40.2009C184.515 40.2009 185.4 39.6704 185.975 39.2298L186.108 41.6597ZM183.848 34.7658C183.848 32.5118 183.141 31.3638 181.772 31.3638C180.181 31.3638 179.518 33.0863 179.518 34.7658H183.848ZM188.775 39.2738C189.262 39.4496 190.501 40.112 191.918 40.112C193.025 40.112 193.868 39.8033 193.868 38.8312C193.868 38.3456 193.646 37.903 192.539 37.2406L191.298 36.4893C190.014 35.7379 188.642 34.8987 188.642 32.9105C188.642 31.142 190.325 29.2867 192.981 29.2867C194.575 29.2867 195.816 29.7283 196.126 29.8172L195.949 32.2031C195.196 31.8933 194.398 31.6286 193.292 31.6286C192.096 31.6286 191.564 32.1141 191.564 32.8655C191.564 33.5729 192.096 33.9265 192.981 34.501L194.488 35.4721C196.038 36.4893 196.835 37.1966 196.835 38.6983C196.835 41.0402 194.886 42.4549 192.14 42.4549C190.59 42.4549 189.262 42.1013 188.642 41.8355L188.775 39.2738ZM199.667 30.2578C200.509 29.8612 201.702 29.3306 203.65 29.3306C207.587 29.3306 208.472 31.2749 208.472 34.4561V40.0241C208.472 40.9523 208.561 41.7925 208.649 42.2781H205.906C205.774 41.7915 205.73 41.1741 205.73 40.5546H205.685C204.933 41.6147 204.004 42.4989 202.19 42.4989C200.243 42.4989 198.429 41.1291 198.429 38.7433C198.429 35.2963 201.172 34.4121 205.021 34.4121H205.64V33.9265C205.64 32.6447 205.021 31.4957 203.295 31.4957C201.792 31.4957 200.42 32.247 199.845 32.7326L199.667 30.2578ZM205.604 36.754V36.0477H205.338C202.769 36.0477 201.219 36.5772 201.219 38.4335C201.219 39.5825 202.016 40.3778 203.168 40.3778C204.983 40.3778 205.647 39.008 205.647 36.754H205.604ZM211.317 42.2433V31.6306C211.317 30.8343 211.317 30.083 211.228 29.5075H213.974C213.974 30.3038 214.062 31.1001 214.062 31.8514H214.107C214.461 30.8783 215.435 29.3306 217.295 29.3306C217.517 29.3306 217.651 29.3746 217.827 29.4196V32.2941C217.555 32.2033 217.271 32.1584 216.985 32.1612C215.746 32.1612 214.373 32.9125 214.373 35.3004V42.2444L211.317 42.2433ZM219.908 42.2433V31.6306C219.908 30.8343 219.908 30.083 219.82 29.5075H222.566C222.566 30.3038 222.654 31.1001 222.654 31.8514H222.698C223.053 30.8783 224.028 29.3306 225.887 29.3306C226.109 29.3306 226.242 29.3746 226.418 29.4196V32.2941C226.147 32.2035 225.863 32.1585 225.577 32.1612C224.337 32.1612 222.964 32.9125 222.964 35.3004V42.2444L219.908 42.2433ZM230.98 35.8708C230.98 37.9919 231.468 40.2899 233.416 40.2899C235.365 40.2899 235.808 37.9919 235.808 35.8708C235.808 33.7497 235.365 31.4957 233.416 31.4957C231.423 31.4957 230.979 33.7497 230.979 35.8708H230.98ZM227.88 35.8708C227.88 30.6565 230.847 29.3306 233.416 29.3306C235.984 29.3306 238.951 30.6565 238.951 35.8708C238.951 41.217 235.984 42.4539 233.416 42.4539C230.847 42.4539 227.88 41.217 227.88 35.8708ZM241.609 23.6747H244.62V42.2341H241.609V23.6747ZM247.986 23.6747H250.988V42.2341H247.986V23.6747ZM256.8 35.8698C256.8 37.9919 257.286 40.2899 259.23 40.2899C261.175 40.2899 261.617 37.9919 261.617 35.8708C261.617 33.7497 261.175 31.4957 259.231 31.4957C257.241 31.4957 256.8 33.7497 256.8 35.8708V35.8698ZM253.7 35.8698C253.7 30.6565 256.667 29.3306 259.235 29.3306C261.804 29.3306 264.771 30.6565 264.771 35.8708C264.771 41.217 261.804 42.4539 259.235 42.4539C256.667 42.4539 253.7 41.217 253.7 35.8708V35.8698Z" fill="white"/>
</svg>
