<svg width="165" height="100" viewBox="0 0 165 100" fill="none" xmlns="http://www.w3.org/2000/svg">
<path fill-rule="evenodd" clip-rule="evenodd" d="M132.738 19.0241C140.519 19.0324 144.465 19.1797 147.749 20.3348C156.029 23.226 157.193 29.1589 157.193 33.2104C157.193 38.1882 155.395 43.4714 148.624 45.4298L158.575 62.6068H164.623V69.7246C162.225 69.8679 160.71 70.0052 159.115 70.1181C157.523 70.2471 156.249 70.3133 155.296 70.3133C153.339 70.3133 151.876 70.019 150.908 69.4194C149.927 68.8378 149.055 67.8185 148.295 66.3472L137.843 47.1964H132.172V58.4616H121.296V26.7513H116.682V19.0237L132.738 19.0241ZM33.7556 18.8462C36.205 18.8462 37.8698 19.3158 38.7604 20.2494C39.6501 21.1907 40.0686 22.7307 40.0686 24.8739V50.5781H44.9171V57.5677C44.9171 57.5677 39.0343 58.381 35.5329 58.381C33.6488 58.381 32.2473 58.1057 31.305 57.5677C30.3689 57.0375 29.7414 56.1788 29.4258 55.0019C27.7037 56.2875 23.2904 59.205 17.8982 59.205C14.392 59.205 10.5904 58.1977 7.74656 55.4831C6.66463 54.441 4.85033 51.5545 4.85033 45.9094V26.6425H0V19.5728C1.51604 19.3511 3.18172 19.1835 5.01555 19.0447C6.82777 18.9055 8.29245 18.8462 9.39087 18.8462C11.8423 18.8462 13.5111 19.3158 14.4045 20.2494C15.2865 21.1907 15.7293 22.7307 15.7293 24.8739V44.3828C15.7293 46.1519 16.0372 47.5927 16.9813 48.3164C19.3471 50.1439 24.2723 49.4608 25.5506 49.3215C26.8325 49.1933 28.0486 48.9962 29.1937 48.7227V26.6425H24.3596V19.5728C25.8807 19.3511 27.5463 19.1835 29.3704 19.0447C31.1954 18.9055 32.662 18.8462 33.7556 18.8462ZM103.837 18.8462C106.347 18.8462 108.027 19.3158 108.921 20.2494C109.816 21.1907 110.251 22.7328 110.251 24.8739V58.464H99.3745V26.6447H94.2118V19.6456C94.9838 19.5398 95.8228 19.4503 96.7197 19.3638C96.7197 19.3638 101.573 18.8462 103.837 18.8462ZM75.5552 18.0402C84.3914 18.0402 87.3693 24.7372 87.3693 31.3094V50.5781H92.1111V57.5677C92.1111 57.5677 87.9246 58.0914 87.0976 58.1792C86.264 58.252 85.4501 58.3081 84.6763 58.341C83.9651 58.3595 83.3936 58.369 82.9046 58.381H82.7207C82.6102 58.381 82.5123 58.3649 82.4012 58.3649C82.203 58.3595 82.0095 58.3577 81.8154 58.341C81.0678 58.304 80.4104 58.2096 79.8431 58.0675C79.7906 58.0579 79.7566 58.0466 79.7118 58.0323C79.2514 57.9164 78.3641 57.5868 77.8189 57.0064C76.9226 56.0528 76.4975 54.4858 76.4975 52.3375V32.8352C76.4975 31.0174 76.0747 29.6969 75.2357 28.8955C74.7156 28.4139 74.0367 28.0759 73.2085 27.9323C68.3055 27.0699 63.9722 28.2296 62.8746 28.501V58.049H51.9907V26.6425H46.5992V19.6441C48.1117 19.379 53.2573 18.8462 56.3797 18.8462C58.3108 18.8462 59.7606 19.1131 60.731 19.6441C61.6905 20.1818 62.3545 21.0181 62.7152 22.1429C67.2826 18.3211 73.2616 18.0402 75.5552 18.0402ZM138.175 26.5343H132.172V39.8531H138.602C144.211 39.8531 146.337 36.195 146.337 33.0661C146.337 30.0813 145.476 26.5343 138.175 26.5343ZM103.133 0C104.947 0 106.332 0.407902 107.234 1.20483C108.101 1.99292 108.548 3.34648 108.548 5.24241V6.31485C108.548 8.21323 108.113 9.55037 107.234 10.31C106.332 11.0805 104.953 11.4748 103.133 11.4748H102.561C100.704 11.4748 99.3046 11.0886 98.4382 10.3151C97.5819 9.55783 97.1419 8.21078 97.1419 6.31485V5.24241C97.1419 3.3558 97.5819 1.99292 98.4382 1.20483C99.3226 0.405221 100.71 0 102.561 0H103.133Z" fill="white"/>
<path d="M0.121582 81.8775H7.49121V80.3528H1.84414V70.2764H0.121582V81.8775ZM17.2335 81.8775H19.0217L14.4679 70.2764H12.878L8.32374 81.8775H10.0961L11.2052 78.9276H16.1239L17.2335 81.8775ZM11.7851 77.4194L13.6729 72.4309L15.5607 77.4194H11.7851ZM29.3497 82.0101C32.0157 82.0101 33.8044 80.4689 33.8044 77.8172V70.2764H32.1484V77.8669C32.1484 79.5242 31.0225 80.4689 29.3497 80.4689C27.6937 80.4689 26.5674 79.5242 26.5674 77.8669V70.2764H24.9114V77.8172C24.9114 80.4689 26.7 82.0101 29.3497 82.0101ZM36.4423 81.8775H38.1648V72.9612L43.7621 81.8775H45.6667V70.2764H43.9441V79.2093L38.3636 70.2764H36.4423V81.8775ZM48.5183 81.8775H50.2408V70.2764H48.5183V81.8775ZM56.3528 81.8775H58.0586L62.3811 70.2764H60.6422L57.1976 79.8059L53.7697 70.2764H52.0308L56.3528 81.8775ZM64.1638 81.8775H71.782V80.3528H65.8864V76.657H70.5067V75.1323H65.8864V71.8011H71.5995V70.2764H64.1638V81.8775ZM80.7125 76.3753C81.7393 75.8615 82.4183 74.9997 82.4183 73.7567C82.4183 71.6851 80.9941 70.2764 78.6591 70.2764H74.1216V81.8775H75.8437V77.3034H78.7419C79.7356 77.3034 80.4147 78.0326 80.497 79.0601L80.7293 81.8775H82.4016L82.1698 78.911C82.1037 77.784 81.5573 76.8725 80.7125 76.3753ZM75.8437 71.768H78.6093C80.1163 71.768 80.6958 72.6961 80.6958 73.7567C80.6958 74.8008 80.1163 75.7787 78.6093 75.7787H75.8437V71.768ZM88.9382 82.0101C91.4222 82.0101 93.2109 80.7671 93.2109 78.6458C93.2109 74.2208 86.6032 76.0935 86.6032 73.2761C86.6032 72.2983 87.4479 71.6685 88.8391 71.6685C90.2633 71.6685 91.1905 72.4475 91.3063 73.6407H92.9791C92.8301 71.5194 91.2072 70.1438 88.8391 70.1438C86.504 70.1438 84.8811 71.4199 84.8811 73.2761C84.8811 77.552 91.4557 75.8781 91.4557 78.6624C91.4557 79.9219 90.3955 80.4854 88.9382 80.4854C87.299 80.4854 86.322 79.5242 86.1894 78.0326H84.5166C84.6493 80.4357 86.322 82.0101 88.9382 82.0101ZM95.4436 81.8775H97.1657V70.2764H95.4436V81.8775ZM100.016 81.8775H103.576C106.806 81.8775 109.422 79.8556 109.422 76.077C109.422 72.2983 106.806 70.2764 103.576 70.2764H100.016V81.8775ZM101.738 80.3528V71.8011H103.477C105.63 71.8011 107.65 73.0109 107.65 76.077C107.65 79.143 105.63 80.3528 103.477 80.3528H101.738ZM119.165 81.8775H120.954L116.399 70.2764H114.81L110.256 81.8775H112.028L113.137 78.9276H118.055L119.165 81.8775ZM113.717 77.4194L115.605 72.4309L117.493 77.4194H113.717ZM122.68 81.8775H126.24C129.47 81.8775 132.086 79.8556 132.086 76.077C132.086 72.2983 129.47 70.2764 126.24 70.2764H122.68V81.8775ZM124.402 80.3528V71.8011H126.141C128.294 71.8011 130.314 73.0109 130.314 76.077C130.314 79.143 128.294 80.3528 126.141 80.3528H124.402ZM0.121582 100H7.73929V98.4751H1.84414V94.7793H6.46447V93.2546H1.84414V89.9234H7.55731V88.3987H0.121582V100ZM10.0793 100H11.8014V91.0836L17.3987 100H19.3032V88.3987H17.5812V97.3315L12.0002 88.3987H10.0793V100ZM26.4687 100H28.1908V88.3987H26.4687V100ZM31.041 100H32.7631V91.0836L38.3604 100H40.265V88.3987H38.5428V97.3315L32.9619 88.3987H31.041V100ZM45.75 100H47.4725V89.9234H51.0991V88.3987H42.1233V89.9234H45.75V100ZM52.8321 100H60.4498V98.4751H54.5542V94.7793H59.1745V93.2546H54.5542V89.9234H60.2674V88.3987H52.8321V100ZM69.3804 94.4976C70.4071 93.9838 71.0862 93.122 71.0862 91.879C71.0862 89.8074 69.6619 88.3987 67.3269 88.3987H62.7894V100H64.5115V95.4257H67.4097C68.4034 95.4257 69.0825 96.1549 69.1653 97.1824L69.3971 100H71.0694L70.8376 97.0333C70.7715 95.9063 70.2251 94.9948 69.3804 94.4976ZM64.5115 89.8903H67.2771C68.7842 89.8903 69.3636 90.8184 69.3636 91.879C69.3636 92.9231 68.7842 93.901 67.2771 93.901H64.5115V89.8903ZM74.1053 100H75.8278V91.0836L81.4251 100H83.3296V88.3987H81.6071V97.3315L76.0266 88.3987H74.1053V100ZM86.1812 100H93.7994V98.4751H87.9038V94.7793H92.5241V93.2546H87.9038V89.9234H93.617V88.3987H86.1812V100ZM98.7719 100H100.494V89.9234H104.121V88.3987H95.1453V89.9234H98.7719V100Z" fill="white"/>
</svg>
