<svg width="200" height="70" viewBox="0 0 200 70" fill="none" xmlns="http://www.w3.org/2000/svg">
<path d="M86.4282 32.805C86.6257 33.1407 86.8232 33.4862 87.0206 33.8219C88.63 36.5371 90.2591 39.2424 91.8586 41.9674C92.0758 42.3327 92.3226 42.4611 92.7274 42.4512C93.537 42.4314 94.3368 42.4611 95.1464 42.4413C95.5216 42.4314 95.6795 42.5697 95.6697 42.9547C95.6499 43.9717 95.6598 44.9985 95.6598 46.0155C95.6598 46.282 95.6302 46.4993 95.2747 46.5091C93.4975 46.598 91.7302 46.7461 89.953 46.7856C89.2816 46.7955 88.5806 46.6375 87.9389 46.4203C87.0898 46.1241 86.606 45.3836 86.1814 44.6233C84.2364 41.1479 82.2913 37.6824 80.3562 34.207C80.1686 33.8713 79.9612 33.7331 79.5762 33.7528C78.8357 33.7726 78.0952 33.7824 77.3547 33.7528C76.9104 33.7331 76.782 33.9009 76.782 34.3255C76.8018 36.0335 76.7919 37.7515 76.7919 39.4596C76.7919 40.1112 76.7919 40.1112 76.1403 40.1112C74.4618 40.1112 72.7833 40.1112 71.1049 40.1112C70.4532 40.1112 70.4532 40.1112 70.4434 39.4596C70.4434 33.9305 70.4434 28.4015 70.4434 22.8823C70.4434 22.201 70.4434 22.201 69.772 22.201C69.2586 22.201 68.755 22.1912 68.2416 22.201C67.9257 22.2109 67.7578 22.1023 67.7578 21.7469C67.7677 20.5818 67.7677 19.4069 67.7578 18.2418C67.7578 17.8963 67.9059 17.7778 68.2317 17.7877C72.8524 17.8272 77.4731 17.8272 82.0939 17.9062C83.9797 17.9358 85.8062 18.3505 87.5044 19.2588C90.2986 20.7595 91.6512 23.4451 91.2958 26.7724C91.0687 28.9149 90.2591 30.7118 88.3634 31.867C87.7809 32.2126 87.1194 32.4693 86.4282 32.805ZM76.8018 25.7653C76.8116 26.7724 76.8018 27.7696 76.8116 28.7767C76.8116 29.5468 76.8215 29.5468 77.562 29.5468C78.5987 29.5468 79.6354 29.5567 80.6721 29.5369C81.0769 29.527 81.4916 29.4875 81.8964 29.4086C83.8908 29.0235 85.1151 27.4438 85.0164 25.4099C84.9275 23.4253 83.7921 22.3393 81.6002 22.1221C81.5311 22.1122 81.4718 22.1122 81.4027 22.1023C80.0402 22.0826 78.6777 22.0628 77.3152 22.0233C76.9202 22.0134 76.8018 22.1813 76.8018 22.5466C76.8116 23.6327 76.8018 24.699 76.8018 25.7653Z" fill="white" fill-opacity="0.3"/>
<path d="M17.1006 38.2063C16.6365 38.4926 16.2317 38.7493 15.817 38.9764C13.013 40.5561 10.0905 41.0202 6.9903 39.9341C4.43312 39.0356 3.14959 37.1696 2.91263 34.5433C2.82377 33.6152 2.81389 32.6673 2.81389 31.7392C2.80402 28.7476 2.80402 25.7462 2.82377 22.7545C2.82377 22.2609 2.68554 22.0733 2.182 22.1128C1.6291 22.1523 1.06632 22.1029 0.503539 22.1226C0.1481 22.1226 0 22.0042 0 21.629C0.00987331 20.5923 0.00987331 19.5556 0 18.5189C0 18.2721 0.0394932 18.0647 0.355439 18.0351C2.41896 17.8278 4.47261 17.5217 6.546 17.7488C8.26396 17.9364 8.98471 18.7065 9.13281 20.4738C9.16243 20.849 9.16243 21.234 9.16243 21.6092C9.16243 24.9662 9.16243 28.3231 9.16243 31.68C9.16243 31.9565 9.16243 32.2428 9.18218 32.5192C9.30066 34.0891 9.83382 34.6815 11.3938 34.9185C13.1216 35.185 14.8396 34.9481 16.5378 34.6519C16.9525 34.5828 16.9426 34.2964 16.9426 33.9904C16.9426 30.5545 16.9426 27.1087 16.9426 23.6728C16.9426 23.2976 16.9327 22.9125 16.9426 22.5373C16.9525 22.2214 16.8241 22.093 16.5082 22.1029C15.8664 22.1128 15.2246 22.093 14.5829 22.1029C14.2669 22.1128 14.1386 21.9844 14.1485 21.6685C14.1583 20.6022 14.1386 19.526 14.1682 18.4596C14.1682 18.3115 14.3755 18.0647 14.5039 18.045C16.597 17.7981 18.6803 17.5118 20.7932 17.7488C22.4124 17.9364 23.1924 18.7361 23.2418 20.3751C23.301 22.3004 23.2813 24.2257 23.2911 26.151C23.301 29.0833 23.301 32.0058 23.3109 34.9382C23.3109 35.5997 23.3208 35.5997 23.9724 35.6096C24.5352 35.6096 25.0881 35.6195 25.6509 35.6096C25.9767 35.5997 26.1346 35.7083 26.1248 36.0638C26.1149 37.1005 26.1149 38.1372 26.1248 39.1738C26.1248 39.4503 26.0458 39.6181 25.7496 39.6379C23.8934 39.7761 22.0471 39.9835 20.1909 40.023C18.8679 40.0624 17.614 39.7268 17.1006 38.2063Z" fill="white" fill-opacity="0.3"/>
<path d="M36.5034 19.4563C36.6417 19.3675 36.77 19.2885 36.9083 19.1996C39.6234 17.4126 42.6249 16.8695 45.7844 17.4323C48.0552 17.8371 49.5856 19.2984 50.257 21.4902C50.5729 22.5269 50.7506 23.6426 50.7704 24.7287C50.8395 28.135 50.8 31.5413 50.8 34.9476C50.8 35.6189 50.8 35.6189 51.4911 35.6189C52.0144 35.6189 52.5476 35.6288 53.0709 35.6189C53.3967 35.6091 53.5547 35.7276 53.5547 36.0731C53.5448 37.1098 53.5448 38.1465 53.5547 39.1832C53.5547 39.4597 53.4559 39.6176 53.1696 39.6473C51.1456 39.8842 49.1215 40.21 47.0778 39.9928C45.4487 39.825 44.8168 39.2326 44.5403 37.6134C44.4712 37.2085 44.4613 36.7939 44.4613 36.3891C44.4515 32.9038 44.4613 29.4185 44.4515 25.9234C44.4515 25.4297 44.412 24.936 44.3132 24.4522C44.1355 23.6031 43.5925 23.0502 42.7335 22.8824C40.7786 22.5072 38.8335 22.6158 36.9181 23.0897C36.7799 23.1292 36.6219 23.3662 36.5923 23.5241C36.5331 23.7907 36.5726 24.077 36.5726 24.3634C36.5726 29.2605 36.5726 34.1676 36.5726 39.0647C36.5726 39.8645 36.5627 39.8645 35.7531 39.8645C34.124 39.8645 32.4949 39.8645 30.8658 39.8645C30.2142 39.8645 30.2142 39.8645 30.2142 39.203C30.2142 33.7134 30.2043 28.214 30.2142 22.7244C30.2142 22.2307 30.1055 22.053 29.5921 22.0826C28.9207 22.132 28.2395 22.0826 27.5681 22.0925C27.2423 22.1024 27.0843 22.0037 27.0942 21.6482C27.1041 20.5918 27.0843 19.5452 27.1139 18.4888C27.1139 18.3407 27.3213 18.084 27.4496 18.0741C29.5131 17.9359 31.5767 17.7384 33.6402 17.7285C34.9928 17.7384 35.6642 18.0247 36.5034 19.4563Z" fill="white" fill-opacity="0.3"/>
<path d="M64.077 29.9613C64.077 33.1208 64.077 36.2802 64.077 39.4397C64.077 40.0913 64.077 40.0913 63.4254 40.0913C61.7666 40.0913 60.0981 40.0913 58.4393 40.0913C57.7285 40.0913 57.7285 40.0913 57.7285 39.3903C57.7285 33.8613 57.7285 28.3322 57.7285 22.813C57.7285 22.1219 57.7285 22.1219 57.0571 22.1219C56.4449 22.1219 55.8427 22.112 55.2305 22.1219C54.885 22.1318 54.7171 22.0232 54.727 21.648C54.7467 20.631 54.7368 19.6042 54.727 18.5873C54.727 18.2614 54.8356 18.1035 55.1713 18.0738C56.8892 17.9455 58.6171 17.7875 60.335 17.6789C60.8089 17.6493 61.2927 17.7184 61.7568 17.7875C63.1785 18.0047 63.9289 18.844 64.0178 20.3348C64.0573 21.0358 64.0573 21.7467 64.0573 22.4576C64.077 24.9654 64.0671 27.4634 64.077 29.9613Z" fill="white" fill-opacity="0.3"/>
<path d="M63.0818 10.3139C63.0818 10.462 63.0916 10.6101 63.0818 10.7582C63.0028 12.5847 62.3018 13.3746 60.4752 13.4832C59.6261 13.5326 58.7375 13.4141 57.8983 13.2463C57.1874 13.108 56.7727 12.5452 56.6049 11.8344C56.3679 10.8569 56.3679 9.87945 56.5654 8.902C56.7431 7.98378 57.3157 7.421 58.2043 7.19392C59.2608 6.92734 60.3172 6.93721 61.3737 7.21366C62.4301 7.49011 62.9238 8.25036 63.0521 9.28706C63.0916 9.63262 63.0916 9.97819 63.1114 10.3238C63.0916 10.3139 63.0818 10.3139 63.0818 10.3139Z" fill="white" fill-opacity="0.3"/>
<path d="M49.0346 62.0008C49.0346 60.7666 49.0346 59.5423 49.0346 58.3082C49.0346 58.0021 48.9359 57.8639 48.6101 57.854C48.5015 57.854 48.4027 57.6763 48.2941 57.5775C48.4027 57.4887 48.5113 57.3307 48.6199 57.3208C49.0939 57.2912 49.5776 57.3011 50.0516 57.3208C50.1602 57.3307 50.2589 57.4591 50.3675 57.538C50.2787 57.6467 50.1898 57.8342 50.0812 57.8342C49.7159 57.854 49.706 58.0811 49.706 58.3477C49.706 59.8583 49.706 61.3689 49.6764 62.8894C49.6764 63.0868 49.5382 63.2744 49.4592 63.462C49.242 63.3633 48.9359 63.3139 48.8075 63.1461C47.7708 61.8132 46.7638 60.4507 45.7369 59.098C45.6382 58.9697 45.5395 58.8512 45.3914 58.6636C45.3519 58.8216 45.3025 58.9104 45.3025 58.9993C45.2926 60.1545 45.2926 61.2998 45.263 62.455C45.2531 62.7709 45.3519 62.8992 45.6777 62.9091C45.7962 62.9091 45.9147 63.0868 46.0331 63.1856C45.9147 63.2843 45.806 63.4522 45.6777 63.462C45.2334 63.5015 44.7891 63.4917 44.3448 63.462C44.2164 63.4522 44.1078 63.3139 43.9894 63.2349C44.0881 63.1165 44.1868 62.919 44.2954 62.9091C44.6213 62.8795 44.6607 62.7018 44.6607 62.4451C44.6607 61.0826 44.6607 59.72 44.6805 58.3477C44.6805 58.0317 44.6114 57.854 44.2461 57.8441C44.1276 57.8441 44.0091 57.6664 43.8906 57.5677C44.0091 57.4887 44.1177 57.3505 44.2461 57.3307C44.9569 57.2024 45.4901 57.3801 45.9443 58.0613C46.8032 59.3646 47.7906 60.579 48.7187 61.8329C48.7779 61.9119 48.8372 61.981 48.8964 62.0501C48.9556 62.0304 48.9951 62.0205 49.0346 62.0008Z" fill="white" fill-opacity="0.3"/>
<path d="M25.4857 62.0008C25.4857 60.737 25.4857 59.4831 25.4857 58.2193C25.4857 57.933 25.3178 57.8836 25.071 57.854C24.9525 57.8342 24.8439 57.696 24.7353 57.6071C24.8538 57.5084 24.9723 57.3307 25.0908 57.3307C25.5449 57.3011 26.009 57.3011 26.473 57.3406C26.5816 57.3504 26.6902 57.5183 26.7988 57.6071C26.71 57.696 26.6211 57.854 26.5224 57.854C26.1176 57.8836 26.1571 58.1699 26.1571 58.4266C26.1472 59.8879 26.1472 61.3491 26.1176 62.8104C26.1176 63.0276 26.0583 63.3633 25.9201 63.4423C25.614 63.6101 25.3869 63.3633 25.1994 63.1066C24.1034 61.6354 22.9877 60.1643 21.8326 58.6241C21.8029 58.7919 21.7832 58.8709 21.7733 58.9598C21.7634 60.0952 21.7536 61.2306 21.7437 62.3661C21.7437 62.6721 21.7634 62.919 22.1781 62.919C22.2769 62.919 22.3756 63.1066 22.4743 63.2152C22.3657 63.304 22.267 63.4719 22.1485 63.4818C21.7042 63.5114 21.2599 63.5114 20.8156 63.4818C20.6971 63.4719 20.5885 63.3238 20.4799 63.2349C20.5688 63.1263 20.6576 62.9387 20.7662 62.9288C21.0526 62.8894 21.1019 62.7314 21.1118 62.4944C21.1217 61.1122 21.1316 59.7299 21.1612 58.3575C21.171 58.0317 21.0624 57.8737 20.7169 57.8737C20.5984 57.8737 20.47 57.7059 20.3516 57.6071C20.4799 57.5183 20.5885 57.3603 20.7267 57.3406C21.4376 57.2418 21.9708 57.3998 22.4151 58.0811C23.3234 59.4436 24.3503 60.7271 25.3277 62.0501C25.3771 62.0205 25.4264 62.0106 25.4857 62.0008Z" fill="white" fill-opacity="0.3"/>
<path d="M9.44562 58.6138C9.42588 58.8606 9.416 58.9989 9.416 59.1371C9.40613 60.154 9.40613 61.1809 9.40613 62.1978C9.40613 62.5631 9.32714 62.9581 9.91954 62.9186C9.98866 62.9186 10.1368 63.1062 10.117 63.1852C10.0973 63.2938 9.96891 63.4616 9.87018 63.4616C9.37651 63.4912 8.88285 63.4912 8.38918 63.4715C8.29045 63.4715 8.14235 63.3036 8.13247 63.2148C8.13247 63.116 8.2707 62.9186 8.34969 62.9186C8.74462 62.9186 8.74462 62.6816 8.75449 62.3953C8.76437 61.0821 8.78411 59.7591 8.80386 58.446C8.81373 58.0807 8.76437 57.8338 8.31019 57.8536C8.20159 57.8536 8.09298 57.6857 7.98438 57.5969C8.09298 57.508 8.19171 57.35 8.31019 57.3303C9.03095 57.2414 9.59372 57.3599 10.0578 58.0708C10.9562 59.4432 11.9929 60.7168 13.0296 62.0991C13.0593 61.9115 13.0889 61.793 13.0889 61.6745C13.1086 60.5885 13.1086 59.5024 13.1382 58.4163C13.1481 58.0708 13.0889 57.8437 12.6643 57.8437C12.5755 57.8437 12.4767 57.6561 12.3879 57.5475C12.4866 57.4685 12.5853 57.3303 12.6939 57.3204C13.1876 57.3007 13.6813 57.3007 14.1749 57.3204C14.2737 57.3303 14.4316 57.4784 14.4316 57.5771C14.4316 57.666 14.2835 57.8437 14.1947 57.8437C13.8096 57.8634 13.7998 58.1004 13.7998 58.3867C13.7998 59.8875 13.7998 61.3783 13.7701 62.8791C13.7701 63.0765 13.6319 63.2641 13.5628 63.4616C13.3456 63.3629 13.0395 63.3234 12.9112 63.1555C11.8646 61.8029 10.8476 60.4305 9.82081 59.068C9.7122 58.9396 9.61347 58.8212 9.44562 58.6138Z" fill="white" fill-opacity="0.3"/>
<path d="M24.2098 47.4077C24.0222 47.388 23.8445 47.3978 23.7062 47.3386C23.5976 47.2892 23.489 47.1609 23.4693 47.0523C23.4594 46.9832 23.5878 46.8252 23.6865 46.8054C24.3776 46.608 24.9207 46.7956 25.3452 47.3682C26.3227 48.6715 27.2903 49.9748 28.2578 51.2879C28.3171 51.3669 28.3763 51.436 28.5145 51.6039C28.5145 50.1327 28.5145 48.7801 28.5145 47.3978C28.3664 47.3781 28.2183 47.3978 28.09 47.3386C27.9814 47.2892 27.9024 47.1708 27.8135 47.0819C27.9123 46.9832 28.011 46.8054 28.1196 46.7956C28.6133 46.7659 29.1069 46.7659 29.6006 46.7956C29.6993 46.8054 29.8573 46.9634 29.8672 47.0523C29.8771 47.1411 29.7191 47.3287 29.6302 47.3287C29.2353 47.3386 29.2452 47.5854 29.2452 47.8718C29.2353 49.3725 29.2353 50.8634 29.2057 52.3641C29.2057 52.5517 29.0773 52.7294 29.0082 52.9071C28.7811 52.8084 28.4849 52.7788 28.3467 52.6109C27.2606 51.2089 26.2042 49.7773 25.1379 48.3654C25.0786 48.2864 25.0194 48.2173 24.891 48.0495C24.891 49.5305 24.891 50.893 24.891 52.3147C25.0391 52.3345 25.207 52.3246 25.3452 52.374C25.444 52.4135 25.592 52.5418 25.5822 52.6109C25.5624 52.7196 25.4439 52.8973 25.3551 52.9071C24.8318 52.9368 24.2986 52.9368 23.7754 52.9071C23.6964 52.9071 23.568 52.7393 23.568 52.6504C23.568 52.5616 23.6964 52.3839 23.7655 52.3839C24.2493 52.4036 24.2295 52.0877 24.2295 51.7618C24.2295 50.4783 24.2394 49.1948 24.2394 47.9112C24.2394 47.7533 24.2197 47.5953 24.2098 47.4077Z" fill="white" fill-opacity="0.3"/>
<path d="M59.3182 49.8469C59.3182 49.1854 59.3182 48.5337 59.3182 47.8722C59.3182 47.5859 59.2984 47.3588 58.9134 47.3391C58.8147 47.3292 58.7258 47.1416 58.6271 47.0429C58.7455 46.954 58.8541 46.8059 58.9726 46.796C59.8217 46.7763 60.6807 46.7664 61.5298 46.7862C63.3366 46.8256 64.3931 47.8229 64.4721 49.5507C64.5708 51.4562 63.623 52.6904 61.8161 52.878C60.8782 52.9767 59.9106 52.9274 58.9628 52.9175C58.8443 52.9175 58.7258 52.7595 58.6172 52.6706C58.7159 52.562 58.8048 52.3744 58.9035 52.3646C59.2195 52.335 59.2787 52.1671 59.2787 51.9005C59.2688 51.2094 59.2787 50.5183 59.2787 49.8271C59.2984 49.8469 59.3083 49.8469 59.3182 49.8469ZM60.0883 49.8666C60.0784 49.8666 60.0784 49.8666 60.0686 49.8666C60.0686 50.1135 60.0686 50.3603 60.0686 50.6071C60.0686 50.8737 60.0587 51.1304 60.0686 51.397C60.0883 52.4238 59.9007 52.3646 61.0559 52.3547C61.7964 52.3547 62.527 52.2461 63.0306 51.6438C63.7612 50.7454 63.8303 49.7087 63.4452 48.6621C63.0799 47.6748 62.2506 47.3786 61.2731 47.3687C61.0559 47.3687 60.8486 47.3786 60.6313 47.3588C60.2364 47.3292 60.0587 47.4773 60.0784 47.892C60.1081 48.5535 60.0883 49.2051 60.0883 49.8666Z" fill="white" fill-opacity="0.3"/>
<path d="M72.4859 49.8364C72.4859 49.1749 72.4761 48.5233 72.4859 47.8617C72.4859 47.5655 72.4465 47.3582 72.0713 47.3385C71.9725 47.3385 71.8935 47.1311 71.8047 47.0225C71.9034 46.9435 72.0022 46.7954 72.1009 46.7954C73.1376 46.7954 74.1743 46.7263 75.2011 46.8448C76.9783 47.0423 77.9163 48.4936 77.6003 50.4091C77.3634 51.8604 76.4649 52.7589 74.9641 52.8873C74.0361 52.9662 73.0981 52.9268 72.1601 52.9169C72.0417 52.9169 71.9232 52.7589 71.8146 52.6799C71.9133 52.5713 72.0022 52.3936 72.1009 52.3837C72.3872 52.3541 72.4465 52.1961 72.4465 51.9592C72.4366 51.2483 72.4465 50.5473 72.4465 49.8364C72.4563 49.8364 72.4662 49.8364 72.4859 49.8364ZM73.2363 49.8562C73.2264 49.8562 73.2264 49.8562 73.2166 49.8562C73.2166 50.2708 73.2166 50.6756 73.2166 51.0903C73.2067 52.4627 73.2067 52.4627 74.5791 52.3442C76.0403 52.2159 76.8401 51.2977 76.8203 49.7574C76.8006 48.2567 76.0305 47.4569 74.5297 47.378C74.2829 47.3681 74.0361 47.378 73.7892 47.3582C73.3943 47.3286 73.2166 47.4767 73.2363 47.8914C73.2462 48.543 73.2363 49.2045 73.2363 49.8562Z" fill="white" fill-opacity="0.3"/>
<path d="M41.5251 60.5289C41.8904 61.1312 42.2261 61.7236 42.6309 62.2765C42.8185 62.5332 43.1344 62.6813 43.3812 62.8985C43.4701 62.9775 43.5787 63.1059 43.5787 63.2145C43.5787 63.2935 43.4405 63.4415 43.3516 63.4514C42.8678 63.5107 42.4334 63.4317 42.1569 62.9578C41.8706 62.474 41.5942 61.9902 41.3078 61.5163C41.1992 61.3385 41.1005 61.0917 40.9327 61.0127C40.6562 60.8745 40.3304 60.8054 40.0144 60.7955C39.9552 60.7955 39.8565 61.1904 39.8268 61.4175C39.7874 61.694 39.817 61.9803 39.8071 62.2568C39.7972 62.6023 39.7479 62.938 40.2711 62.9084C40.3403 62.9084 40.4785 63.0861 40.4686 63.1651C40.4489 63.2737 40.3205 63.4514 40.2317 63.4514C39.6886 63.481 39.1456 63.481 38.6026 63.4514C38.5137 63.4514 38.3952 63.2638 38.3755 63.1552C38.3656 63.0762 38.5137 62.9084 38.5828 62.9084C39.037 62.9183 39.0271 62.6319 39.0271 62.316C39.0271 61.0226 39.0271 59.7193 39.0469 58.4259C39.0469 58.1001 39.037 57.8335 38.5927 57.8434C38.5137 57.8434 38.3755 57.6854 38.3755 57.5966C38.3755 57.5077 38.5137 57.3398 38.5828 57.3398C39.6491 57.3793 40.7154 57.3695 41.762 57.5176C42.3445 57.5966 42.6111 58.1495 42.6506 58.7419C42.7 59.4132 42.4729 59.9661 41.8805 60.3413C41.762 60.4203 41.604 60.4894 41.5251 60.5289ZM39.817 59.0183C39.8071 60.2722 39.9355 60.3907 41.0215 60.1241C41.6633 59.9661 41.999 59.4231 41.8805 58.732C41.7719 58.11 41.1202 57.7545 40.1724 57.8829C39.501 57.9717 39.9552 58.5444 39.817 58.8702C39.8071 58.9097 39.8268 58.9689 39.817 59.0183Z" fill="white" fill-opacity="0.3"/>
<path d="M48.0151 49.9948C48.4002 50.6169 48.7359 51.2191 49.1308 51.772C49.3085 52.0189 49.6146 52.167 49.8516 52.3743C49.9503 52.4533 50.0787 52.5816 50.0787 52.6804C50.0688 52.7692 49.9108 52.9075 49.8022 52.9272C49.2888 52.9963 48.8642 52.868 48.5878 52.3743C48.3113 51.8708 48.0151 51.3771 47.7091 50.8834C47.5906 50.6958 47.4425 50.4589 47.2549 50.3799C46.9982 50.2713 46.6822 50.2614 46.4058 50.3009C46.3367 50.3108 46.2873 50.6662 46.2774 50.8637C46.2577 51.1401 46.2774 51.4265 46.2676 51.7029C46.2577 52.0584 46.2083 52.4237 46.7514 52.3842C46.8106 52.3842 46.939 52.5421 46.9291 52.6113C46.9192 52.71 46.8106 52.8877 46.7415 52.8877C46.1886 52.9173 45.6258 52.9173 45.063 52.8976C44.984 52.8976 44.8458 52.7199 44.8557 52.6409C44.8754 52.5323 45.0038 52.3743 45.0926 52.3743C45.3888 52.3546 45.4876 52.2065 45.4876 51.93C45.4974 50.528 45.5073 49.1359 45.5271 47.7338C45.5271 47.4574 45.4086 47.3685 45.1519 47.329C45.0334 47.3093 44.9445 47.1513 44.8359 47.0526C44.9445 46.9637 45.0531 46.786 45.1618 46.786C46.0207 46.7761 46.8797 46.7564 47.7288 46.8354C48.5779 46.9144 49.0123 47.3389 49.1111 48.0103C49.2394 48.889 48.9334 49.5209 48.1929 49.8961C48.1336 49.9455 48.0546 49.9751 48.0151 49.9948ZM46.2972 48.4941C46.2873 49.7283 46.3762 49.8171 47.4326 49.5999C48.1139 49.4518 48.4792 48.9581 48.3903 48.2769C48.3015 47.5857 47.7881 47.2895 46.7415 47.3685C45.9714 47.4179 46.4354 48.0498 46.2972 48.3954C46.2873 48.425 46.2972 48.4645 46.2972 48.4941Z" fill="white" fill-opacity="0.3"/>
<path d="M21.5044 49.4613C21.5044 48.9183 21.4945 48.3753 21.5044 47.8322C21.5143 47.536 21.4254 47.3781 21.0996 47.3484C20.9811 47.3386 20.8824 47.1707 20.7738 47.0819C20.8922 46.9831 21.0107 46.8153 21.1391 46.8054C21.5932 46.7758 22.0573 46.7758 22.5213 46.8054C22.6398 46.8153 22.7583 46.9634 22.8669 47.0523C22.7682 47.1609 22.6892 47.3386 22.5806 47.3484C22.2548 47.3879 22.2251 47.5854 22.2251 47.8322C22.2153 48.8887 22.2153 49.9353 22.1856 50.9917C22.1461 52.295 21.4353 52.9861 20.1419 53.0355C19.9444 53.0453 19.7469 53.0453 19.5495 53.0355C18.1672 52.996 17.5156 52.3345 17.4958 50.9423C17.4859 49.9353 17.4859 48.9381 17.4958 47.931C17.4958 47.6052 17.4859 47.3386 17.0416 47.3484C16.9627 47.3484 16.8047 47.1609 16.8047 47.0621C16.8047 46.9733 16.9725 46.8054 17.0614 46.8054C17.5847 46.7857 18.1178 46.7857 18.6411 46.8054C18.73 46.8054 18.888 46.9634 18.8781 47.0325C18.8682 47.1411 18.7497 47.3386 18.6707 47.3386C18.2561 47.3484 18.2462 47.615 18.2462 47.9112C18.2561 49.0269 18.2462 50.1525 18.2956 51.2682C18.3252 51.9593 18.6411 52.2851 19.3224 52.374C19.6778 52.4233 20.0431 52.4135 20.3986 52.3641C21.0601 52.2654 21.4155 51.8606 21.4451 51.1892C21.4748 50.6165 21.455 50.034 21.455 49.4613C21.4748 49.4613 21.4945 49.4613 21.5044 49.4613Z" fill="white" fill-opacity="0.3"/>
<path d="M12.4962 52.295C12.3185 51.7717 12.1803 51.2978 11.9828 50.8535C11.9236 50.7153 11.7064 50.5672 11.5583 50.5573C11.035 50.5178 10.5117 50.5277 9.97854 50.5474C9.85019 50.5474 9.66259 50.6363 9.6231 50.735C9.39601 51.2386 9.20842 51.752 9.05045 52.1469C9.31703 52.374 9.65272 52.5418 9.64285 52.6801C9.61323 53.0947 9.21829 52.9071 8.97146 52.9269C8.66539 52.9565 8.33957 52.9565 8.0335 52.917C7.89527 52.8973 7.77679 52.7492 7.64844 52.6603C7.74717 52.5616 7.85578 52.4628 7.95451 52.3542C8.10261 52.2061 8.30995 52.0778 8.37906 51.8902C9.02083 50.3598 9.65272 48.8295 10.2649 47.2892C10.3932 46.9733 10.5117 46.7561 10.9165 46.7659C11.3213 46.7758 11.3904 47.0227 11.499 47.309C12.0519 48.7998 12.6048 50.3006 13.1577 51.7915C13.2664 52.0778 13.3355 52.3937 13.76 52.3937C13.8193 52.3937 13.9377 52.5813 13.9279 52.6702C13.918 52.759 13.7798 52.9071 13.7008 52.9071C13.1775 52.9269 12.6542 52.9269 12.121 52.9071C12.0322 52.9071 11.9038 52.759 11.894 52.6702C11.8841 52.5813 11.9828 52.453 12.0717 52.3937C12.1902 52.3345 12.3185 52.3345 12.4962 52.295ZM10.8968 47.7533C10.8573 47.7533 10.8178 47.7533 10.7783 47.7533C10.5018 48.4543 10.2254 49.1553 9.93904 49.9155C10.5611 49.9155 11.0745 49.9155 11.6767 49.9155C11.4003 49.1553 11.1436 48.4543 10.8968 47.7533Z" fill="white" fill-opacity="0.3"/>
<path d="M69.8416 52.3343C69.3085 50.4485 69.2393 50.3893 67.3535 50.5473C67.2153 50.5572 67.008 50.646 66.9586 50.7546C66.7315 51.2483 66.5538 51.7518 66.3662 52.2356C66.4452 52.2949 66.4649 52.3245 66.4946 52.3343C66.692 52.4232 67.0573 52.2652 67.0277 52.67C66.9981 53.065 66.6723 52.9267 66.4551 52.9366C66.0898 52.9564 65.7343 52.9564 65.369 52.9267C65.2505 52.9169 65.1419 52.7688 65.0234 52.6799C65.1222 52.5713 65.211 52.4627 65.3098 52.364C65.4579 52.2159 65.6652 52.0875 65.7442 51.9098C66.3958 50.3597 67.0277 48.8096 67.6497 47.2595C67.7682 46.9534 67.9163 46.7757 68.2915 46.7855C68.6667 46.7954 68.7556 47.0126 68.8543 47.2891C69.4269 48.8491 69.9996 50.409 70.6019 51.9493C70.671 52.127 70.8981 52.2356 71.056 52.3738C71.1449 52.4627 71.2338 52.5614 71.3226 52.6602C71.214 52.749 71.1153 52.9169 70.9968 52.9267C70.5426 52.9564 70.0786 52.9662 69.6145 52.9267C69.4862 52.9169 69.3776 52.7392 69.2591 52.6404C69.3677 52.5516 69.4566 52.4528 69.575 52.3738C69.6343 52.3343 69.7231 52.3541 69.8416 52.3343ZM68.252 47.7926C68.2026 47.7926 68.1533 47.7926 68.1138 47.7926C67.8472 48.4838 67.5708 49.1749 67.2844 49.9154C67.8966 49.9154 68.41 49.9154 69.0123 49.9154C68.7457 49.165 68.4988 48.4838 68.252 47.7926Z" fill="white" fill-opacity="0.3"/>
<path d="M41.8546 52.9373C41.2919 52.9373 40.739 52.957 40.1762 52.9274C40.0478 52.9175 39.9195 52.7595 39.7911 52.6608C39.8899 52.5621 39.9886 52.3844 40.0972 52.3745C40.3934 52.335 40.423 52.1573 40.423 51.9203C40.4329 50.538 40.4428 49.1558 40.4625 47.7735C40.4625 47.4872 40.3736 47.3588 40.0676 47.3391C39.9688 47.3292 39.8701 47.1515 39.7812 47.0528C39.8899 46.9639 40.0083 46.7961 40.1268 46.7961C41.282 46.7763 42.4273 46.7763 43.5825 46.7961C43.701 46.7961 43.8885 46.9738 43.9182 47.1021C43.9675 47.349 43.9675 47.6353 43.9182 47.8821C43.8885 48.0006 43.7108 48.1487 43.5825 48.1684C43.5035 48.1882 43.2863 47.9809 43.2961 47.9019C43.3455 47.3983 43.0691 47.349 42.6643 47.349C41.2425 47.349 41.2425 47.3391 41.2326 48.7411C41.2228 49.4717 41.2228 49.4717 41.9633 49.4717C42.2101 49.4717 42.4668 49.4421 42.7037 49.4915C42.8716 49.531 43.0098 49.6791 43.1579 49.7877C43.0098 49.8765 42.8716 50.0246 42.7235 50.0444C42.3681 50.0839 42.0027 50.0641 41.6374 50.0543C41.3412 50.0444 41.2228 50.1727 41.2228 50.4689C41.2326 50.9626 41.2326 51.4563 41.2228 51.9499C41.2228 52.2066 41.3017 52.3547 41.5881 52.3547C42.0521 52.3547 42.5063 52.3547 42.9703 52.3547C43.3258 52.3547 43.3554 52.1178 43.3653 51.8611C43.3751 51.6142 43.4146 51.397 43.7503 51.4168C44.086 51.4365 44.0366 51.6833 44.0268 51.8907C43.9577 53.0656 44.165 52.9175 42.9999 52.9373C42.6149 52.9471 42.2397 52.9471 41.8546 52.9373C41.8546 52.9373 41.8546 52.9471 41.8546 52.9373Z" fill="white" fill-opacity="0.3"/>
<path d="M53.0775 63.4812C52.5345 63.4812 51.9914 63.501 51.4484 63.4714C51.2904 63.4615 51.1522 63.3134 50.9942 63.2344C51.1127 63.1159 51.2411 63.0073 51.3497 62.8888C51.4583 62.7802 51.6459 62.6618 51.6459 62.5433C51.6656 61.1116 51.6656 59.68 51.6755 58.2583C51.6755 57.9917 51.557 57.8929 51.2904 57.8535C51.1818 57.8337 51.0831 57.6757 50.9844 57.577C51.1029 57.4881 51.2115 57.34 51.3299 57.3302C52.4752 57.3104 53.6304 57.3104 54.7757 57.34C54.8942 57.34 55.0818 57.5474 55.1213 57.6856C55.1805 57.9028 55.1805 58.1497 55.1213 58.3669C55.0818 58.5051 54.9139 58.6137 54.7955 58.7421C54.6869 58.6334 54.4696 58.515 54.4795 58.4162C54.5091 57.9127 54.2327 57.8436 53.8378 57.8732C53.5613 57.8929 53.275 57.8929 52.9985 57.8732C52.6036 57.8436 52.416 57.9719 52.4456 58.3965C52.4752 58.8013 52.4555 59.216 52.4456 59.6306C52.4357 59.9268 52.5641 60.0453 52.8603 60.0355C53.2256 60.0256 53.5909 60.0058 53.9464 60.0552C54.0945 60.075 54.2129 60.2428 54.3512 60.3415C54.2228 60.4304 54.1043 60.5884 53.9661 60.5982C53.5909 60.6377 53.2157 60.618 52.8307 60.618C52.5641 60.618 52.4456 60.7266 52.4456 61.003C52.4555 61.5165 52.4456 62.02 52.4357 62.5334C52.4259 62.8099 52.5542 62.9185 52.8208 62.9086C53.196 62.8987 53.5811 62.8888 53.9562 62.9086C54.361 62.9382 54.5881 62.8197 54.5486 62.3754C54.519 62.0891 54.6671 61.941 54.9633 61.9805C54.9929 61.9805 55.0522 61.9904 55.0522 62.0002C55.1114 62.3853 55.1904 62.7704 55.1904 63.1554C55.1904 63.2739 54.9633 63.4714 54.835 63.4812C54.2623 63.501 53.6699 63.4812 53.0775 63.4812Z" fill="white" fill-opacity="0.3"/>
<path d="M3.10156 57.8145C3.10156 57.6566 3.10156 57.5282 3.10156 57.3999C3.14106 57.3702 3.19042 57.3307 3.22992 57.3307C4.44433 57.3209 5.65875 57.311 6.87317 57.3307C7.00152 57.3307 7.18911 57.5282 7.22861 57.6664C7.28785 57.9133 7.27797 58.1897 7.22861 58.4464C7.20886 58.555 7.02127 58.7328 6.93241 58.7229C6.80405 58.7031 6.58684 58.5353 6.59671 58.4464C6.63621 57.8836 6.31039 57.854 5.88584 57.8639C4.58256 57.8836 4.58256 57.8738 4.54307 59.1573C4.54307 59.2758 4.54307 59.3844 4.53319 59.5029C4.50357 59.8781 4.6418 60.0558 5.0466 60.0261C5.40204 60.0064 5.76736 60.0064 6.13267 60.0459C6.25115 60.0558 6.35975 60.2137 6.46836 60.3026C6.34988 60.4013 6.25115 60.5791 6.1228 60.5988C5.74761 60.6383 5.37242 60.6284 4.98736 60.6185C4.68129 60.6087 4.52332 60.7173 4.53319 61.0431C4.54307 61.5368 4.53319 62.0304 4.52332 62.5241C4.51345 62.8006 4.63193 62.9092 4.8985 62.9092C5.31318 62.8993 5.71799 62.8894 6.13267 62.919C6.51773 62.9388 6.68557 62.8005 6.66583 62.4155C6.65595 62.1588 6.71519 61.9613 7.04101 61.9712C7.39645 61.9909 7.36683 62.2378 7.34709 62.4649C7.23848 63.6497 7.45569 63.4917 6.29064 63.5016C5.3823 63.5114 4.48383 63.5114 3.57548 63.4917C3.41751 63.4917 3.26941 63.3436 3.11144 63.2547C3.22992 63.1362 3.35827 63.0276 3.46687 62.9092C3.56561 62.8005 3.71371 62.6821 3.72358 62.5735C3.7532 61.1418 3.7532 59.7102 3.78282 58.2786C3.78282 57.775 3.39776 57.9034 3.10156 57.8145Z" fill="white" fill-opacity="0.3"/>
<path d="M33.9322 62.8393C33.9421 62.632 33.9618 62.4246 33.9717 62.2173C33.9816 60.9733 33.9816 59.7193 33.9914 58.4753C33.9914 58.1396 34.0013 57.8335 33.5274 57.8434C33.4583 57.8434 33.3102 57.6558 33.3299 57.5867C33.3595 57.4781 33.4978 57.3399 33.5965 57.33C34.0902 57.3004 34.5838 57.3103 35.0775 57.3103C35.6995 57.3103 36.3314 57.33 36.9534 57.3004C37.3681 57.2806 37.5261 57.4485 37.4767 57.8434C37.457 58.0409 37.5063 58.2482 37.457 58.4358C37.4273 58.5543 37.2595 58.732 37.1706 58.7221C37.0324 58.7024 36.8053 58.5444 36.8152 58.4556C36.8744 57.8335 36.4894 57.8632 36.0648 57.8632C34.7813 57.873 34.7813 57.8632 34.7813 59.1368C34.7813 59.2849 34.7912 59.433 34.7813 59.5811C34.7714 59.8971 34.9195 60.0254 35.2256 60.0155C35.5909 60.0057 35.9463 59.9958 36.3117 60.0353C36.44 60.055 36.5585 60.2031 36.677 60.3019C36.5585 60.4006 36.4499 60.5684 36.3215 60.5783C35.9463 60.6178 35.5712 60.6079 35.1861 60.5981C34.8998 60.5882 34.7616 60.6968 34.7616 60.993C34.7714 61.4669 34.7615 61.9507 34.7418 62.4246C34.7319 62.7504 34.8504 62.9084 35.196 62.8887C35.5712 62.8689 35.9562 62.8689 36.3314 62.8887C36.6967 62.9084 36.9041 62.7899 36.8744 62.395C36.8547 62.1383 36.9139 61.9408 37.2398 61.9408C37.6051 61.9507 37.5458 62.2074 37.5458 62.4345C37.5557 63.4712 37.5557 63.4712 36.4993 63.4811C35.6403 63.4811 34.7912 63.4909 33.9322 63.4712C33.7051 63.4613 33.32 63.6292 33.3299 63.2046C33.3398 63.0466 33.636 62.9084 33.8038 62.7603C33.8532 62.7899 33.8927 62.8196 33.9322 62.8393Z" fill="white" fill-opacity="0.3"/>
<path d="M52.5368 53.0647C52.2011 53.0252 51.9049 53.0055 51.6186 52.9561C50.5622 52.7685 50.6807 52.7981 50.7202 51.6824C50.7202 51.5738 50.967 51.406 51.1052 51.3961C51.2039 51.3862 51.431 51.6035 51.4212 51.6923C51.352 52.265 51.7075 52.3736 52.132 52.3933C52.4776 52.4032 52.8232 52.4131 53.1589 52.3538C53.7019 52.2551 54.0178 51.8997 54.0573 51.4455C54.1067 50.9518 53.8994 50.5964 53.3464 50.389C52.8923 50.2113 52.4085 50.1027 51.9346 49.9447C51.0756 49.6584 50.6708 49.1351 50.7004 48.3749C50.73 47.585 51.2336 46.9136 52.0827 46.8149C52.8133 46.726 53.5735 46.8346 54.3239 46.8939C54.4424 46.9038 54.6201 47.121 54.6201 47.2493C54.6399 47.5455 54.6497 47.8911 54.5115 48.1379C54.3831 48.365 53.9487 48.1675 53.9487 47.8516C53.9487 47.506 53.7908 47.3678 53.4847 47.3579C53.1095 47.3481 52.7244 47.3184 52.3591 47.3777C51.8951 47.4567 51.5989 47.7529 51.5396 48.2465C51.4804 48.7204 51.7667 48.9969 52.1518 49.1549C52.5961 49.3326 53.0601 49.4412 53.5143 49.5893C54.4226 49.8855 54.8571 50.3693 54.8768 51.1295C54.8966 52.0379 54.4424 52.6796 53.5637 52.9166C53.228 52.9956 52.8627 53.0153 52.5368 53.0647Z" fill="white" fill-opacity="0.3"/>
<path d="M38.01 47.427C37.7829 47.3875 37.6446 47.3974 37.5657 47.3382C37.4669 47.269 37.3485 47.1506 37.3386 47.042C37.3287 46.9728 37.4867 46.805 37.5657 46.805C38.0889 46.7852 38.6221 46.7852 39.1454 46.805C39.2343 46.805 39.3823 46.9728 39.3823 47.042C39.3725 47.1506 39.2441 47.3382 39.1651 47.3382C38.8196 47.3579 38.7406 47.585 38.6419 47.8417C38.0495 49.3721 37.4571 50.9024 36.8647 52.4427C36.756 52.729 36.6474 52.9561 36.2525 52.9561C35.8675 52.9462 35.7588 52.7389 35.6502 52.4427C35.0677 50.9222 34.4753 49.4115 33.8829 47.8911C33.7842 47.6344 33.7151 47.3579 33.3399 47.3382C33.2708 47.3382 33.1227 47.1506 33.1424 47.0814C33.172 46.9728 33.3004 46.8149 33.3991 46.8149C33.8533 46.7852 34.3173 46.7754 34.7814 46.805C34.9295 46.8149 35.0776 46.9728 35.2257 47.0617C35.0973 47.1703 34.969 47.2789 34.8406 47.3875C34.8011 47.4171 34.7518 47.427 34.6234 47.4764C35.1763 48.987 35.7194 50.4976 36.2624 52.0082C36.3118 52.0082 36.3512 52.0082 36.4006 52.0082C36.914 50.4976 37.4571 48.9969 38.01 47.427Z" fill="white" fill-opacity="0.3"/>
<path d="M29.5669 62.8205C29.5669 62.4157 29.5669 62.0109 29.5669 61.6061C29.5768 60.5398 29.5669 59.4636 29.5866 58.3973C29.5965 57.9925 29.4484 57.8148 29.0436 57.8641C28.8856 57.8839 28.7079 57.8839 28.5499 57.8641C28.1155 57.8049 27.8884 57.9629 27.9082 58.417C27.918 58.6836 27.8193 58.8613 27.5034 58.8317C27.1677 58.8021 27.2269 58.575 27.2368 58.3578C27.3059 57.2026 27.0887 57.3112 28.3228 57.3013C29.6064 57.3013 30.8899 57.3112 32.1734 57.2915C32.5782 57.2816 32.7461 57.4297 32.7165 57.8345C32.6967 58.0616 32.756 58.2986 32.7066 58.5256C32.6868 58.6441 32.519 58.8021 32.4104 58.8021C32.2919 58.8021 32.1339 58.6737 32.0648 58.5553C31.9562 58.3479 31.9464 57.9431 31.8476 57.9234C31.4132 57.8444 30.9689 57.8641 30.5246 57.8937C30.4555 57.8937 30.3469 58.111 30.3469 58.2294C30.3271 59.6413 30.337 61.0631 30.3271 62.475C30.3271 62.7218 30.3864 62.86 30.6826 62.8896C30.8109 62.8995 30.9294 63.097 31.0479 63.2155C30.9097 63.2944 30.7813 63.4425 30.6431 63.4524C30.1988 63.482 29.7545 63.4919 29.3102 63.4524C29.1621 63.4425 29.0337 63.2747 28.8955 63.176C29.0239 63.0772 29.1621 62.9686 29.3003 62.8699C29.3595 62.86 29.4385 62.86 29.5669 62.8205Z" fill="white" fill-opacity="0.3"/>
<path d="M58.5975 57.3107C59.3182 57.3107 60.0488 57.3206 60.7696 57.3107C61.1349 57.3008 61.3225 57.4193 61.3126 57.8044C61.3028 58.0315 61.3719 58.2684 61.3324 58.4955C61.3126 58.6239 61.1448 58.8114 61.0362 58.8114C60.9177 58.8114 60.7499 58.6634 60.6709 58.535C60.5524 58.3375 60.5228 57.9426 60.4043 57.9229C59.9896 57.8537 59.5552 57.8834 59.1306 57.9229C59.0615 57.9327 58.9727 58.1598 58.9727 58.2882C58.943 59.6902 58.9332 61.0823 58.9134 62.4843C58.9134 62.7706 59.0121 62.899 59.3083 62.9089C59.4367 62.9187 59.5453 63.0866 59.6638 63.1853C59.5256 63.2841 59.3972 63.4519 59.259 63.4717C58.8048 63.5111 58.3408 63.5111 57.8767 63.4717C57.7484 63.4618 57.62 63.3038 57.4917 63.2149C57.6003 63.1063 57.7089 62.9977 57.8175 62.8891C57.936 62.7608 58.1433 62.6324 58.1433 62.5041C58.1729 61.0724 58.1729 59.6408 58.1828 58.2092C58.1828 58.1598 58.1927 58.0907 58.163 58.0611C57.7879 57.6464 57.3041 57.9229 56.8696 57.8834C56.761 57.8735 56.6031 58.0808 56.5142 58.2289C56.455 58.3277 56.5241 58.5153 56.455 58.6041C56.3858 58.7028 56.2378 58.8115 56.1193 58.8016C56.0107 58.8016 55.9021 58.6634 55.8132 58.5745C55.7836 58.535 55.8033 58.4461 55.8033 58.3869C55.8231 57.1132 55.7243 57.3206 56.84 57.3107C57.4423 57.3008 58.0248 57.3107 58.5975 57.3107Z" fill="white" fill-opacity="0.3"/>
<path d="M3.13285 52.4135C3.31057 52.3838 3.47842 52.3542 3.73513 52.3147C3.73513 51.9198 3.73513 51.5347 3.73513 51.1398C3.745 50.034 3.75487 48.9381 3.76475 47.8322C3.76475 47.5558 3.73513 47.3583 3.37969 47.3386C3.28095 47.3287 3.19209 47.1411 3.09336 47.0424C3.19209 46.9634 3.29083 46.8054 3.39943 46.8054C3.8931 46.7758 4.38676 46.7758 4.88043 46.8054C4.97916 46.8153 5.13713 46.9733 5.13713 47.0621C5.13713 47.1609 4.98904 47.3386 4.90018 47.3386C4.55461 47.3682 4.51512 47.5755 4.51512 47.852C4.51512 49.2046 4.51512 50.5474 4.4855 51.9C4.47562 52.2456 4.61385 52.374 4.94954 52.3641C5.34447 52.3542 5.73941 52.3443 6.13434 52.3641C6.4799 52.3838 6.60826 52.2357 6.60826 51.9099C6.60826 51.6532 6.628 51.3866 7.00319 51.4261C7.3685 51.4656 7.26977 51.7519 7.2599 51.9593C7.23028 52.996 7.42774 52.9367 6.27257 52.9367C5.35435 52.9367 4.42626 52.9269 3.50804 52.9367C3.14273 52.9466 3.0045 52.7985 3.13285 52.4135Z" fill="white" fill-opacity="0.3"/>
<path d="M18.1668 62.8403C18.1767 62.6824 18.1965 62.5244 18.2063 62.3664C18.2162 61.0631 18.2261 59.7697 18.2359 58.4665C18.2359 58.1406 18.2458 57.8247 17.7719 57.8444C17.7028 57.8444 17.5744 57.6766 17.5744 57.5877C17.5744 57.4989 17.7028 57.3409 17.7818 57.3409C18.3248 57.3212 18.8678 57.3212 19.4109 57.3508C19.5096 57.3508 19.5985 57.5186 19.6873 57.6174C19.5985 57.7062 19.5096 57.8642 19.4109 57.8741C19.0554 57.8839 19.0159 58.0913 19.0159 58.3677C19.0159 59.7303 19.0159 61.1026 18.9962 62.4652C18.9962 62.7712 19.0851 62.9095 19.4109 62.9391C19.5096 62.9489 19.638 63.1365 19.6577 63.255C19.6676 63.3143 19.48 63.4821 19.3714 63.4821C18.8975 63.5117 18.4137 63.5117 17.9397 63.4821C17.8015 63.4722 17.683 63.3143 17.5547 63.2254C17.683 63.1168 17.8015 63.0082 17.9397 62.9095C17.9891 62.8601 18.0681 62.87 18.1668 62.8403Z" fill="white" fill-opacity="0.3"/>
<path d="M56.8283 52.9367C56.5617 52.9367 56.2951 52.9565 56.0384 52.9269C55.9298 52.917 55.7619 52.7788 55.7521 52.6899C55.7422 52.5912 55.8804 52.3937 55.9594 52.3937C56.4037 52.3838 56.3938 52.0975 56.3938 51.7816C56.3938 50.498 56.4037 49.2145 56.4136 47.931C56.4136 47.6052 56.4037 47.3386 55.9693 47.3386C55.8903 47.3386 55.7422 47.1411 55.7422 47.0523C55.7521 46.9634 55.91 46.8054 56.0088 46.8054C56.5222 46.7758 57.0257 46.7758 57.5391 46.8054C57.6379 46.8153 57.8057 46.9634 57.8057 47.0621C57.8156 47.1609 57.6675 47.3485 57.5786 47.3485C57.1936 47.3682 57.1837 47.6052 57.1837 47.8915C57.1738 49.2046 57.1639 50.5277 57.1343 51.8408C57.1245 52.1568 57.1639 52.3937 57.5687 52.3937C57.6576 52.3937 57.8057 52.5813 57.8057 52.6702C57.7958 52.7689 57.6477 52.917 57.549 52.9367C57.3219 52.9565 57.0751 52.9367 56.8283 52.9367Z" fill="white" fill-opacity="0.3"/>
<path d="M31.6054 46.7958C31.8523 46.7958 32.0991 46.7761 32.3459 46.8057C32.4545 46.8254 32.6224 46.9439 32.6322 47.0427C32.6421 47.1315 32.5039 47.329 32.415 47.3389C32.0398 47.3685 32.0201 47.6153 32.0102 47.8918C32.0004 49.195 31.9905 50.4884 31.9707 51.7917C31.9707 52.1077 31.9806 52.3841 32.415 52.4039C32.494 52.4039 32.6125 52.5915 32.6224 52.7099C32.6322 52.779 32.4644 52.9173 32.3755 52.9271C31.872 52.9469 31.3586 52.9568 30.8452 52.937C30.7464 52.937 30.5885 52.779 30.5786 52.6902C30.5687 52.5914 30.7168 52.4137 30.8057 52.4039C31.1809 52.3742 31.2006 52.1472 31.2006 51.8608C31.2006 50.5575 31.2105 49.2641 31.2302 47.9609C31.2302 47.6449 31.2302 47.3685 30.7958 47.3487C30.7168 47.3487 30.5687 47.1513 30.5786 47.0525C30.5885 46.9538 30.7464 46.8254 30.8649 46.8057C31.1019 46.7662 31.3586 46.7958 31.6054 46.7958Z" fill="white" fill-opacity="0.3"/>
</svg>
