<svg width="221" height="40" viewBox="0 0 221 40" fill="none" xmlns="http://www.w3.org/2000/svg">
<path d="M9.72006 2.69V23.38C9.72006 29.57 12.0701 32.71 16.2201 32.71C20.3701 32.71 22.8301 29.73 22.8301 23.38V2.69H30.9301V22.85C30.9301 33.93 25.3201 39.21 15.9501 39.21C6.58006 39.21 1.56006 34.21 1.56006 22.74V2.69H9.72006Z" fill="white"/>
<path d="M52.8999 38.64L49.6499 32.13C48.3199 29.63 47.4699 27.76 46.4499 25.68H46.3499C45.5999 27.76 44.6999 29.63 43.5799 32.13L40.5899 38.64H31.3199L41.7199 20.47L31.6799 2.69H41.0099L44.1499 9.25C45.2199 11.44 46.0199 13.19 46.8599 15.22H46.9799C47.8499 12.93 48.5199 11.33 49.4399 9.25L52.4799 2.69H61.7499L51.6199 20.24L62.2799 38.64H52.8999Z" fill="white"/>
<path d="M93.73 32.45C93.73 34.69 93.84 36.88 94.16 38.64H89.9L89.51 35.38H89.35C87.92 37.41 85.14 39.22 81.47 39.22C76.24 39.22 73.58 35.54 73.58 31.81C73.58 25.57 79.12 22.17 89.09 22.22V21.69C89.09 19.55 88.5 15.72 83.23 15.72C80.83 15.72 78.32 16.47 76.51 17.64L75.45 14.55C77.58 13.16 80.67 12.25 83.92 12.25C91.8 12.25 93.72 17.64 93.72 22.81V32.46L93.73 32.45ZM89.2 25.47C84.09 25.36 78.28 26.27 78.28 31.28C78.28 34.32 80.31 35.76 82.7 35.76C86.06 35.76 88.19 33.61 88.94 31.43C89.1 30.95 89.2 30.42 89.2 29.94V25.46V25.47Z" fill="white"/>
<path d="M98.64 0.780029H103.32V38.63H98.64V0.780029Z" fill="white"/>
<path d="M108.55 0.780029H113.24V38.63H108.55V0.780029Z" fill="white"/>
<path d="M123.69 5.57001C123.75 7.17001 122.57 8.45001 120.71 8.45001C119.06 8.45001 117.89 7.17001 117.89 5.57001C117.89 3.97001 119.11 2.64001 120.82 2.64001C122.53 2.64001 123.69 3.92001 123.69 5.57001ZM118.47 38.63V12.83H123.16V38.64H118.47V38.63Z" fill="white"/>
<path d="M146.39 32.45C146.39 34.69 146.5 36.88 146.82 38.64H142.55L142.18 35.38H142.03C140.57 37.41 137.81 39.22 134.14 39.22C128.9 39.22 126.24 35.54 126.24 31.81C126.24 25.57 131.78 22.17 141.74 22.22V21.69C141.74 19.55 141.17 15.72 135.88 15.72C133.49 15.72 130.98 16.47 129.17 17.64L128.11 14.55C130.24 13.16 133.32 12.25 136.58 12.25C144.47 12.25 146.38 17.64 146.38 22.81V32.46L146.39 32.45ZM141.86 25.47C136.75 25.36 130.94 26.27 130.94 31.28C130.94 34.32 132.96 35.76 135.36 35.76C138.72 35.76 140.85 33.61 141.6 31.43C141.75 30.95 141.86 30.42 141.86 29.94V25.46V25.47Z" fill="white"/>
<path d="M150.73 19.81C150.73 17.15 150.67 14.96 150.5 12.82H154.66L154.93 17.08H155.03C156.31 14.63 159.3 12.23 163.56 12.23C167.13 12.23 172.67 14.35 172.67 23.21V38.62H167.98V23.74C167.98 19.59 166.43 16.13 162.01 16.13C158.92 16.13 156.52 18.31 155.73 20.93C155.51 21.5 155.41 22.31 155.41 23.11V38.62H150.72V19.8L150.73 19.81Z" fill="white"/>
<path d="M196.03 37.67C194.81 38.31 192.09 39.22 188.62 39.22C180.85 39.22 175.78 33.89 175.78 25.99C175.78 18.09 181.22 12.29 189.64 12.29C192.4 12.29 194.86 12.98 196.14 13.63L195.07 17.25C193.95 16.61 192.2 16.03 189.64 16.03C183.71 16.03 180.53 20.4 180.53 25.78C180.53 31.75 184.36 35.43 189.48 35.43C192.14 35.43 193.9 34.73 195.23 34.15L196.03 37.66V37.67Z" fill="white"/>
<path d="M201.15 26.58C201.25 32.92 205.3 35.53 210 35.53C213.35 35.53 215.38 34.95 217.13 34.2L217.93 37.56C216.29 38.3 213.46 39.21 209.35 39.21C201.42 39.21 196.67 33.93 196.67 26.15C196.67 18.37 201.25 12.24 208.77 12.24C217.18 12.24 219.44 19.65 219.44 24.4C219.44 25.35 219.33 26.1 219.28 26.58H201.15ZM214.9 23.22C214.94 20.24 213.67 15.6 208.38 15.6C203.64 15.6 201.57 19.97 201.19 23.22H214.89H214.9Z" fill="white"/>
<path d="M69.17 2.44H67.26V38.7H69.17V2.44Z" fill="white"/>
</svg>
